  <svg width="498" height="48" viewBox="0 0 2656 256" fill="none" xmlns="http://www.w3.org/2000/svg" xmlns:xlink="http://www.w3.org/1999/xlink" version="1.1">
    
        <g transform="translate(0, 0)">
          <svg xmlns="http://www.w3.org/2000/svg" width="256" height="256" fill="none" viewBox="0 0 256 256"><rect width="256" height="256" fill="#242938" rx="60"/><path fill="#ECEFF1" d="M85.9493 199.926L110.48 213.546H147.576L182.278 187.491L197.834 146.632L161.935 103.405L151.764 79.1268L102.104 80.9032L102.702 94.5228L93.1291 112.287L78.1713 141.303L75.1797 165.581L85.9493 199.926Z"/><path fill="#263238" d="M187.064 114.656C177.491 101.036 169.713 92.7463 165.525 75.5738C161.337 58.4013 166.722 63.1386 163.132 48.3347C161.337 40.6367 158.345 35.3073 155.354 31.1622C151.764 27.0171 147.576 24.6485 145.182 24.0563C139.798 21.0956 127.233 16.3583 111.677 24.6485C95.5223 32.9387 97.3172 50.7033 100.309 86.8248C100.309 89.1934 99.7105 92.1542 98.5139 94.5228C96.1206 99.8522 91.9324 104.589 88.3425 108.735C84.1543 114.656 79.9661 120.578 76.9746 127.091C69.7948 140.711 63.2134 157.883 65.0083 164.397C67.9999 163.805 105.694 220.652 105.694 221.836C108.087 221.244 118.258 221.244 127.233 221.244C139.798 220.652 146.977 220.06 157.149 222.428C157.149 220.652 156.55 218.875 156.55 217.099C156.55 213.546 157.149 210.585 157.747 206.44C158.345 203.479 158.944 200.519 159.542 196.966C153.559 202.295 142.789 208.217 132.618 209.993C123.643 211.769 108.685 208.809 101.505 199.926C102.104 199.926 103.3 199.926 103.899 199.334C105.694 198.742 107.489 198.15 108.087 196.966C109.882 194.005 108.685 191.044 107.489 189.268C106.292 187.491 97.3173 180.977 93.1291 177.425C88.9409 173.872 86.5476 172.095 84.1544 169.727C84.1544 169.727 80.5645 166.174 79.3678 164.989C78.1712 163.805 77.5729 162.621 76.9746 162.028C75.778 159.068 75.1796 155.515 75.778 150.778C76.3763 144.264 78.7695 138.934 81.7611 133.013C82.9577 130.644 85.9493 125.907 85.9493 125.907C85.9493 125.907 75.778 150.778 81.1628 158.476C81.1628 158.476 81.7611 150.778 84.1544 143.08C85.9493 137.75 88.9409 130.052 92.5307 125.907C96.1206 121.762 105.095 106.366 105.694 96.8914C105.694 92.7463 106.292 88.6012 106.292 85.6405C103.899 83.2718 145.781 77.3503 148.174 83.864C148.772 86.2326 157.149 107.55 161.935 118.801C164.328 124.131 167.32 128.868 169.115 134.789C170.91 141.303 172.106 150.185 172.106 159.068C172.106 160.844 172.106 163.805 171.508 166.766C172.705 166.766 196.039 141.895 168.517 121.17C168.517 121.17 185.269 128.868 185.868 144.264C186.466 156.699 181.081 166.766 179.885 168.542C180.483 168.542 192.449 173.872 193.047 173.872C195.441 173.872 200.227 172.095 200.227 172.095C200.826 170.319 202.62 165.581 202.62 163.805C206.809 150.185 196.637 128.276 187.064 114.656V114.656Z"/><path fill="#ECEFF1" d="M111.078 75.5738C115.374 75.5738 118.856 70.2714 118.856 63.7307C118.856 57.1899 115.374 51.8876 111.078 51.8876C106.783 51.8876 103.3 57.1899 103.3 63.7307C103.3 70.2714 106.783 75.5738 111.078 75.5738Z"/><path fill="#ECEFF1" d="M138.002 76.7581C143.62 76.7581 148.174 70.6604 148.174 63.1386C148.174 55.6167 143.62 49.519 138.002 49.519C132.385 49.519 127.831 55.6167 127.831 63.1386C127.831 70.6604 132.385 76.7581 138.002 76.7581Z"/><path fill="#212121" d="M115.424 64.5411C114.927 60.6476 112.663 57.7241 110.368 58.0111C108.074 58.2982 106.616 61.6872 107.114 65.5807C107.611 69.4741 109.874 72.3977 112.169 72.1106C114.464 71.8235 115.921 68.4345 115.424 64.5411Z"/><path fill="#212121" d="M137.404 73.2052C140.709 73.2052 143.387 69.7587 143.387 65.5072C143.387 61.2557 140.709 57.8091 137.404 57.8091C134.1 57.8091 131.421 61.2557 131.421 65.5072C131.421 69.7587 134.1 73.2052 137.404 73.2052Z"/><path fill="#FFC107" d="M216.98 195.781C214.587 194.597 210.398 192.82 206.808 187.491C205.014 184.53 205.612 176.24 202.62 172.687C200.825 170.319 198.432 171.503 197.834 171.503C192.449 172.687 179.884 180.977 171.508 171.503C170.311 170.319 168.516 168.542 165.525 168.542C162.533 168.542 161.337 169.726 160.14 172.095C158.943 174.464 158.943 176.24 158.943 182.162C158.943 186.899 158.943 192.228 158.345 196.373C157.148 206.44 155.354 212.362 155.354 218.283C155.354 224.797 157.148 228.942 159.542 230.718C161.337 232.495 164.328 233.679 170.91 233.679C177.491 233.679 181.679 231.311 185.868 227.165C188.859 224.205 191.252 223.02 199.629 217.099C206.21 212.954 216.382 207.624 218.176 205.848C219.373 204.664 221.168 204.071 221.168 200.518C221.168 197.558 218.775 196.373 216.98 195.781V195.781Z"/><path fill="#FFC107" d="M96.7189 197.558C90.7357 188.083 90.1374 186.307 85.9492 180.385C82.3593 174.464 74.5813 163.213 69.7948 163.213C66.2049 163.213 64.4099 164.989 62.0167 167.358C59.6234 169.726 57.2302 175.056 53.042 178.017C49.4521 180.977 39.2808 180.385 36.8875 183.938C34.4942 187.491 39.2808 192.821 39.2808 201.703C39.2808 205.256 36.2892 207.624 35.6909 209.993C35.0926 212.954 34.4942 214.73 35.6909 217.099C38.0841 220.652 41.0757 221.836 61.4184 225.981C72.188 228.35 82.3593 234.271 88.9408 234.864C95.5222 235.456 106.89 234.864 106.89 218.875C107.489 209.401 102.104 207.032 96.7189 197.558Z"/><path fill="#FFC107" d="M108.087 90.3777C104.497 88.0091 101.505 85.6404 101.505 82.0875C101.505 78.5346 103.899 77.3503 107.489 74.3895C108.087 73.7973 114.668 67.8758 121.25 67.8758C127.831 67.8758 135.609 72.0209 138.601 73.2052C143.986 74.3895 149.37 75.5738 148.772 79.7189C148.174 85.6404 147.576 86.8248 141.592 89.7855C137.404 90.9698 129.626 97.4835 124.241 97.4835C121.848 97.4835 118.258 97.4835 115.865 96.8914C114.07 96.2992 111.078 93.3385 108.087 90.3777V90.3777Z"/><path fill="#634703" d="M106.89 85.6405C108.087 86.8248 109.882 88.0091 111.677 88.6012C112.873 89.1934 114.668 89.7856 114.668 89.7856C117.062 89.7856 118.857 89.7856 120.053 89.7856C123.045 89.7856 127.233 88.6013 131.421 86.2326C135.609 84.4562 136.208 83.2718 139.199 82.0875C142.191 80.3111 145.182 78.5346 143.986 77.9425C142.789 77.3503 141.592 77.9425 137.404 80.3111C133.814 82.6797 130.823 83.864 127.233 85.6405C125.438 86.2326 123.045 87.4169 121.25 87.4169C119.455 87.4169 117.66 87.4169 115.865 87.4169C114.07 87.4169 112.873 86.8248 111.078 86.2326C109.882 85.6405 109.283 85.0483 108.685 85.0483C107.489 84.4562 105.095 82.0875 103.899 81.4954C103.899 81.4954 102.702 81.4954 103.3 82.0875C105.095 83.864 105.694 84.4562 106.89 85.6405Z"/><path fill="#634703" d="M124.84 72.613C125.438 73.7973 126.635 73.7973 127.233 74.3895C127.831 74.9816 128.429 74.9816 128.429 74.9816C129.028 74.3895 128.429 73.2052 127.831 73.2052C127.831 72.0209 124.84 72.0209 124.84 72.613V72.613Z"/><path fill="#634703" d="M115.267 73.7973C115.267 74.3895 116.463 74.9816 116.463 74.3895C117.062 73.7973 117.66 73.2052 118.258 73.2052C119.455 72.613 118.856 72.0209 117.062 72.0209C115.865 72.613 115.865 73.2052 115.267 73.7973V73.7973Z"/><path fill="#455A64" d="M173.303 178.609C173.303 179.201 173.303 179.793 173.303 180.385C174.5 182.754 177.491 183.346 179.884 183.346C183.474 183.346 187.064 180.977 188.859 178.609C188.859 178.017 189.457 177.424 190.056 176.832C191.252 175.056 191.851 173.872 192.449 173.279C192.449 173.279 191.851 172.687 191.851 172.095C191.252 170.911 189.457 169.726 187.064 169.134C185.269 168.542 182.278 167.95 181.081 167.95C175.696 167.358 172.705 169.134 170.91 170.911C170.91 170.911 171.508 170.911 171.508 171.503C172.705 172.687 173.303 173.872 173.303 175.648C173.901 176.832 173.303 177.424 173.303 178.609V178.609Z"/></svg>
        </g>
         
        <g transform="translate(300, 0)">
          <svg xmlns="http://www.w3.org/2000/svg" width="256" height="256" fill="none" viewBox="0 0 256 256"><rect width="256" height="256" fill="#242938" rx="60"/><path fill="#019833" d="M135.498 39.4619C128.076 32.03 116.032 32.03 108.61 39.462L33.4081 114.765C26.0001 122.183 26.0001 134.199 33.4081 141.617L108.186 216.495C115.608 223.927 127.652 223.927 135.074 216.495L210.276 141.191C217.684 133.773 217.684 121.757 210.276 114.339L135.498 39.4619Z"/><path fill="#fff" d="M161.769 40.7104L159.083 43.3988V53.2693L161.435 55.6235H173.86V65.1606L91.672 148.576V55.7425H105.331L108.133 52.9365V42.9482L105.546 40.9465H33.6672L31.3158 43.3007V53.5048L33.7069 55.8988H46.2085V216.316C46.2085 222.361 50.6553 227.485 56.6396 228.335V228.335C60.4891 228.883 64.3678 227.553 67.0718 224.759L235 51.2474V43.4001L232.315 40.7117L161.769 40.7104Z"/></svg>
        </g>
         
        <g transform="translate(600, 0)">
          <svg width="256" height="256" viewBox="0 0 256 256" fill="none" xmlns="http://www.w3.org/2000/svg">
<rect width="256" height="256" rx="60" fill="#00979C"/>
<path fill-rule="evenodd" clip-rule="evenodd" d="M19 136.512V120.095C19.3442 119.924 19.3442 119.582 19.3442 119.24C24.5074 96.8376 38.6201 83.3275 60.9939 78.0261C62.8871 77.5131 64.9524 77.6841 66.8455 77H77.8603C78.0324 77.3421 78.5487 77.1711 78.893 77.1711C89.9078 78.3682 99.8899 82.3015 108.667 89.142C116.24 94.7854 122.092 101.968 127.427 109.663C128.115 110.689 128.46 110.689 129.148 109.663C132.246 105.217 135.516 100.942 139.302 97.0086C148.424 87.2609 159.439 80.4203 172.863 78.0261C174.756 77.5131 176.993 77.6841 178.887 77H189.557C189.729 77.3421 190.074 77.1711 190.418 77.1711C193.688 77.5131 196.786 78.1971 199.884 79.0522C222.946 85.7217 239.296 106.756 237.919 130.527C236.886 150.536 226.732 164.901 209.005 173.964C200.228 178.753 190.59 179.95 180.608 179.779C167.528 179.608 156.169 175.161 146.359 166.611C139.474 160.625 134.139 153.443 129.148 145.918C128.46 144.892 128.115 145.063 127.427 146.089C124.329 150.707 121.059 155.324 117.273 159.77C110.561 167.295 102.816 173.451 93.1778 176.701C81.3025 180.805 69.255 180.976 57.2076 177.727C39.8249 172.767 27.9495 161.822 21.4095 145.063C20.3768 142.327 19.8605 139.249 19 136.512ZM73.7298 161.651C83.5398 161.993 91.973 158.744 99.2015 152.075C106.602 145.234 111.937 136.683 117.273 128.304C117.445 127.791 117.445 127.449 117.101 126.936C112.626 119.924 107.979 112.913 101.783 107.098C89.9078 95.8115 75.9672 92.0492 60.3055 97.0086C47.3975 101.284 39.1364 110.347 37.2433 124.028C35.3501 136.854 40.3412 147.115 50.6675 154.811C57.5518 159.77 65.2966 161.822 73.7298 161.651ZM182.845 161.651C186.631 161.651 190.418 161.48 194.032 160.454C207.628 156.35 216.578 147.97 219.16 133.947C221.741 120.095 216.406 108.979 204.703 101.113C191.795 92.2202 173.035 93.0753 159.955 102.823C151.178 109.321 145.326 118.043 139.474 127.107C139.13 127.62 139.302 127.962 139.474 128.475C144.121 135.828 148.768 143.182 154.792 149.509C162.364 157.547 171.486 162.164 182.845 161.651Z" fill="white"/>
<path fill-rule="evenodd" clip-rule="evenodd" d="M73.5577 122.831C79.0651 122.831 84.7446 123.002 90.252 122.831C91.6289 122.831 91.801 123.173 91.801 124.541C91.6288 126.081 91.6288 127.62 91.801 129.159C91.9731 130.527 91.6288 130.869 90.0799 130.869H68.0503C64.264 130.869 60.4776 130.698 56.6913 130.869C55.4865 130.869 55.1423 130.527 55.1423 129.159C55.3144 127.62 55.3144 126.081 55.1423 124.37C55.1423 123.173 55.4865 122.831 56.6913 122.831C62.1987 123.002 67.8782 122.831 73.5577 122.831ZM181.985 111.886C183.361 111.886 184.738 112.057 185.943 111.886C186.804 111.886 187.148 112.228 187.148 113.083C186.976 115.478 187.148 117.872 186.976 120.266C186.976 121.463 187.32 121.805 188.525 121.805C190.762 121.634 193.172 121.805 195.581 121.634C196.614 121.634 196.958 121.805 196.958 123.002V130.869C196.958 131.724 196.614 132.066 195.753 132.066C193.344 131.895 190.934 132.066 188.353 131.895C187.32 131.895 186.976 132.237 186.976 133.263C187.148 135.657 186.976 138.051 187.148 140.446C187.148 141.472 186.804 141.985 185.771 141.985C183.189 141.814 180.608 141.814 178.026 141.985C176.994 141.985 176.649 141.643 176.649 140.617C176.821 138.051 176.649 135.657 176.821 133.092C176.821 132.237 176.477 131.895 175.617 131.895C173.207 132.066 170.798 131.895 168.388 132.066C167.011 132.066 166.839 131.553 166.839 130.527C166.839 128.133 167.011 125.738 166.839 123.344C166.667 121.976 167.356 121.634 168.56 121.634C170.97 121.805 173.207 121.634 175.617 121.805C176.477 121.805 176.821 121.463 176.821 120.608C176.649 118.214 176.821 115.649 176.649 113.255C176.649 112.228 176.994 111.886 178.026 111.886C179.403 112.057 180.608 111.886 181.985 111.886Z" fill="white"/>
</svg>

        </g>
         
        <g transform="translate(900, 0)">
          <svg width="256" height="256" viewBox="0 0 256 256" fill="none" xmlns="http://www.w3.org/2000/svg">
<rect width="256" height="256" rx="60" fill="#242938"/>
<path fill-rule="evenodd" clip-rule="evenodd" d="M36.4065 203.248C35.1443 203.286 33.8902 203.033 32.7411 202.51C31.5921 201.986 30.5788 201.205 29.7794 200.227C28.9801 199.169 28.4302 197.943 28.1705 196.643C27.9108 195.342 27.9482 193.999 28.2797 192.715L58.2516 61.7869C58.9172 59.073 60.4491 56.6499 62.6152 54.8845C64.7813 53.1191 67.4636 52.1077 70.2561 52.0034H219.594C220.856 51.9671 222.11 52.2206 223.258 52.7442C224.407 53.2679 225.421 54.0478 226.221 55.0242C227.02 56.083 227.57 57.3084 227.829 58.6091C228.089 59.9098 228.052 61.2524 227.721 62.5368L197.728 193.472C197.062 196.186 195.53 198.609 193.364 200.374C191.198 202.14 188.516 203.151 185.723 203.255H36.4065V203.248Z" fill="url(#paint0_linear_258_44)"/>
<path fill-rule="evenodd" clip-rule="evenodd" d="M70.2557 53.6861H219.594C220.64 53.6433 221.681 53.853 222.628 54.2974C223.576 54.7418 224.403 55.4078 225.039 56.2393C225.675 57.0707 226.101 58.043 226.282 59.0741C226.463 60.1051 226.393 61.1645 226.078 62.1628L196.085 193.091C195.494 195.427 194.168 197.512 192.302 199.039C190.437 200.565 188.13 201.451 185.723 201.567H36.4062C35.3602 201.61 34.3194 201.401 33.3716 200.956C32.4239 200.512 31.597 199.846 30.961 199.014C30.325 198.183 29.8986 197.21 29.7177 196.179C29.5368 195.148 29.6069 194.089 29.9219 193.091L59.9152 62.1628C60.504 59.8289 61.8265 57.7457 63.688 56.2197C65.5495 54.6938 67.8517 53.8057 70.2557 53.6861V53.6861Z" fill="url(#paint1_linear_258_44)"/>
<path fill-rule="evenodd" clip-rule="evenodd" d="M128.286 167.219H164.606C166.663 167.306 168.607 168.185 170.032 169.671C171.457 171.158 172.253 173.137 172.253 175.196C172.253 177.255 171.457 179.234 170.032 180.721C168.607 182.207 166.663 183.086 164.606 183.173H128.286C126.229 183.086 124.285 182.207 122.86 180.721C121.435 179.234 120.639 177.255 120.639 175.196C120.639 173.137 121.435 171.158 122.86 169.671C124.285 168.185 126.229 167.306 128.286 167.219V167.219Z" fill="#2C5591"/>
<path fill-rule="evenodd" clip-rule="evenodd" d="M151.846 131.756C150.806 133.505 149.358 134.975 147.625 136.041L80.2186 184.423C78.3415 185.644 76.0674 186.098 73.8654 185.691C71.6634 185.284 69.7015 184.048 68.3843 182.237C67.0671 180.426 66.4952 178.179 66.7864 175.959C67.0777 173.739 68.2099 171.715 69.9495 170.305L130.736 126.286V125.386L92.5445 84.7812C91.1206 83.0683 90.4045 80.8765 90.5422 78.6533C90.6799 76.4302 91.6611 74.3435 93.2855 72.8194C94.9098 71.2953 97.0547 70.4489 99.2821 70.4529C101.51 70.4569 103.651 71.3111 105.27 72.841L151.103 121.594C152.334 122.967 153.076 124.709 153.21 126.549C153.344 128.388 152.864 130.219 151.846 131.756Z" fill="#2C5591"/>
<path fill-rule="evenodd" clip-rule="evenodd" d="M150.138 130.071C149.103 131.821 147.657 133.291 145.925 134.356L78.54 182.745C76.6623 183.94 74.3996 184.375 72.2127 183.96C70.0258 183.546 68.0791 182.313 66.7692 180.513C65.4593 178.714 64.8847 176.482 65.1624 174.274C65.44 172.065 66.5491 170.046 68.2637 168.626L129.057 124.608V123.701L90.8658 83.0741C89.4286 81.3622 88.7018 79.1648 88.8348 76.9335C88.9679 74.7023 89.9507 72.6067 91.5811 71.0778C93.2116 69.5488 95.3659 68.7025 97.6011 68.713C99.8363 68.7234 101.983 69.5898 103.599 71.134L149.424 119.887C150.661 121.262 151.403 123.011 151.532 124.856C151.662 126.701 151.171 128.537 150.138 130.071V130.071Z" fill="white"/>
<path fill-rule="evenodd" clip-rule="evenodd" d="M127.287 166.278H163.607C165.613 166.278 167.536 167.075 168.955 168.493C170.373 169.911 171.17 171.835 171.17 173.84C171.17 175.846 170.373 177.77 168.955 179.188C167.536 180.606 165.613 181.403 163.607 181.403H127.287C125.281 181.403 123.357 180.606 121.939 179.188C120.521 177.77 119.724 175.846 119.724 173.84C119.724 171.835 120.521 169.911 121.939 168.493C123.357 167.075 125.281 166.278 127.287 166.278V166.278Z" fill="white"/>
<defs>
<linearGradient id="paint0_linear_258_44" x1="180.31" y1="174.355" x2="65.5857" y2="71.8775" gradientUnits="userSpaceOnUse">
<stop stop-color="#5391FE"/>
<stop offset="1" stop-color="#3E6DBF"/>
</linearGradient>
<linearGradient id="paint1_linear_258_44" x1="64.4427" y1="70.5109" x2="177.996" y2="172.56" gradientUnits="userSpaceOnUse">
<stop stop-color="#5391FE"/>
<stop offset="1" stop-color="#3E6DBF"/>
</linearGradient>
</defs>
</svg>

        </g>
         
        <g transform="translate(1200, 0)">
          <svg xmlns="http://www.w3.org/2000/svg" width="256" height="256" fill="none" viewBox="0 0 256 256"><rect width="256" height="256" fill="#242938" rx="60"/><path fill="#242938" fill-rule="evenodd" d="M203.819 68.8354L140.679 31.3552C133.143 26.8816 123.854 26.8816 116.318 31.3552L53.1774 68.8354C45.6434 73.3091 41 81.575 41 90.5223V165.483C41 174.428 45.6434 182.698 53.1796 187.172L116.32 224.645C120.088 226.883 124.29 227.999 128.499 227.999C132.706 227.999 136.909 226.883 140.677 224.645L203.817 187.172C211.353 182.698 215.999 174.428 215.999 165.483V90.5223C215.999 81.575 211.353 73.3091 203.819 68.8354Z" clip-rule="evenodd"/><path fill="#fff" fill-rule="evenodd" d="M118.527 220.808L55.3866 183.334C49.2108 179.668 45.3744 172.828 45.3744 165.482V90.5234C45.3744 83.1768 49.2109 76.3374 55.3844 72.673L118.527 35.1928C121.554 33.3958 125.002 32.4455 128.499 32.4455C131.994 32.4455 135.442 33.3958 138.472 35.1928L201.612 72.673C206.816 75.7619 210.326 81.1109 211.313 87.1103C209.219 82.6411 204.496 81.4262 198.993 84.6409L139.259 121.537C131.811 125.891 126.319 130.777 126.314 139.758V213.362C126.31 218.74 128.482 222.223 131.818 223.233C130.722 223.423 129.617 223.555 128.499 223.555C125.002 223.555 121.554 222.605 118.527 220.808ZM203.819 68.8343L140.679 31.3563C136.911 29.1184 132.704 28.0005 128.499 28.0005C124.293 28.0005 120.086 29.1184 116.318 31.3563L53.1774 68.8343C45.6434 73.308 41 81.5761 41 90.5234V165.482C41 174.427 45.6434 182.697 53.1796 187.171L116.32 224.646C120.09 226.882 124.293 228 128.499 228C132.706 228 136.909 226.882 140.677 224.646L203.819 187.171C211.355 182.697 215.999 174.427 215.999 165.482V90.5234C215.999 81.5761 211.355 73.308 203.819 68.8343Z" clip-rule="evenodd"/><path fill="#47B353" fill-rule="evenodd" d="M187.267 172.729L171.545 182.139C171.128 182.382 170.822 182.655 170.819 183.156V187.27C170.819 187.773 171.157 187.982 171.573 187.737L187.539 178.034C187.955 177.791 188.019 177.326 188.022 176.825V173.196C188.022 172.696 187.684 172.486 187.267 172.729Z" clip-rule="evenodd"/><path fill="#242938" fill-rule="evenodd" d="M153.788 138.098C154.297 137.84 154.716 138.157 154.723 138.823L154.776 144.262C157.053 143.356 159.031 143.114 160.823 143.528C161.212 143.632 161.384 144.161 161.225 144.789L160.028 149.609C159.935 149.973 159.73 150.341 159.483 150.57C159.379 150.672 159.273 150.751 159.168 150.804C159.007 150.886 158.848 150.912 158.696 150.881C157.878 150.696 155.933 150.271 152.873 151.821C149.663 153.446 148.54 156.235 148.562 158.305C148.589 160.777 149.857 161.526 154.235 161.601C160.069 161.698 162.59 164.247 162.651 170.123C162.711 175.893 159.631 182.089 154.919 185.886L155.023 191.27C155.029 191.918 154.608 192.661 154.099 192.919L150.91 194.756C150.399 195.014 149.98 194.696 149.973 194.048L149.918 188.752C147.187 189.887 144.419 190.161 142.651 189.451C142.318 189.321 142.175 188.829 142.307 188.269L143.463 183.401C143.555 183.017 143.758 182.633 144.034 182.389C144.131 182.294 144.232 182.221 144.333 182.17C144.516 182.078 144.695 182.058 144.847 182.115C146.752 182.757 149.189 182.457 151.532 181.271C154.509 179.765 156.5 176.729 156.469 173.713C156.44 170.976 154.959 169.839 151.356 169.812C146.77 169.825 142.495 168.921 142.424 162.17C142.367 156.612 145.257 150.828 149.832 147.171L149.775 141.736C149.768 141.068 150.176 140.333 150.701 140.069L153.788 138.098Z" clip-rule="evenodd"/></svg>
        </g>
         
        <g transform="translate(1500, 0)">
          <svg xmlns="http://www.w3.org/2000/svg" width="256" height="256" fill="none" viewBox="0 0 256 256"><rect width="256" height="256" fill="#2396ED" rx="60"/><path fill="#fff" d="M141.187 122.123H161.904V103.379H141.187V122.123ZM116.525 122.123H137.241V103.379H116.525V122.123ZM92.3554 122.123H113.072V103.379H92.3554V122.123ZM68.1859 122.123H88.4093V103.379H68.1859V122.123ZM43.5233 122.123H64.2399V103.379H43.5233V122.123ZM68.1859 99.4333H88.4093V80.6896H68.1859V99.4333ZM92.3554 99.4333H113.072V80.6896H92.3554V99.4333ZM116.525 99.4333H137.241V80.6896H116.525V99.4333ZM116.525 76.7436H137.241V58H116.525V76.7436ZM228 113.738C228 113.738 219.121 105.352 200.871 108.312C198.898 94.0075 183.607 85.6222 183.607 85.6222C183.607 85.6222 169.303 102.886 179.661 122.123C176.702 123.603 171.769 125.576 164.37 125.576H28.7257C26.2594 134.948 26.2594 197.097 94.3284 197.097C143.16 197.097 179.661 174.408 196.925 132.974C222.574 134.948 228 113.738 228 113.738Z"/></svg>
        </g>
         
        <g transform="translate(1800, 0)">
          <svg width="256" height="256" viewBox="0 0 256 256" fill="none" xmlns="http://www.w3.org/2000/svg">
<rect width="256" height="256" rx="60" fill="#242938"/>
<path d="M90.582 29.0032C89.543 29.0342 88.424 29.4022 87.154 30.3622C84.042 29.2132 81.026 28.8142 78.329 31.1532C74.163 30.6362 72.809 31.7042 71.784 32.9532C70.87 32.9342 64.942 32.0512 62.224 35.9372C55.393 35.1632 53.232 39.7882 55.678 44.0982C54.285 46.1702 52.837 48.2122 56.101 52.1592C54.947 54.3562 55.662 56.7392 58.382 59.6262C57.664 62.7132 59.074 64.8932 61.604 66.5922C61.13 70.8182 65.649 73.2782 66.999 74.1522C67.517 76.6142 68.597 78.9402 73.761 80.2232C74.608 83.8972 77.712 84.5302 80.716 85.2992C70.787 90.8312 62.274 98.1042 62.333 115.955L60.877 118.442C49.491 125.076 39.25 146.395 55.266 163.725C56.314 169.15 58.066 173.045 59.628 177.358C61.966 194.735 77.215 202.871 81.236 203.834C87.131 208.134 93.408 212.214 101.902 215.074C109.909 222.988 118.585 226.003 127.308 226H127.692C136.417 226.004 145.093 222.988 153.098 215.074C161.593 212.216 167.869 208.134 173.764 203.834C177.786 202.871 193.036 194.735 195.371 177.356C196.933 173.045 198.687 169.15 199.735 163.725C215.75 146.395 205.509 125.073 194.122 118.438L192.668 115.954C192.726 98.1042 184.212 90.8272 174.283 85.2982C177.287 84.5282 180.391 83.8922 181.241 80.2222C186.402 78.9372 187.481 76.6132 188 74.1502C189.349 73.2732 193.87 70.8172 193.396 66.5872C195.925 64.8912 197.335 62.7102 196.618 59.6212C199.338 56.7372 200.052 54.3532 198.897 52.1552C202.162 48.2122 200.713 46.1672 199.32 44.0972C201.765 39.7842 199.608 35.1612 192.774 35.9352C190.056 32.0512 184.129 32.9342 183.216 32.9512C182.189 31.7032 180.834 30.6352 176.669 31.1522C173.973 28.8142 170.955 29.2132 167.844 30.3622C164.151 27.5692 161.704 29.8082 158.913 30.6552C154.44 29.2532 153.417 31.1722 151.221 31.9542C146.343 30.9662 144.86 33.1162 142.521 35.3862L139.801 35.3352C132.444 39.4872 128.79 47.9482 127.496 52.2972C126.198 47.9462 122.553 39.4862 115.197 35.3352L112.477 35.3842C110.135 33.1142 108.653 30.9662 103.776 31.9542C101.579 31.1722 100.557 29.2542 96.082 30.6552C94.248 30.0992 92.563 28.9432 90.579 29.0022L90.582 29.0032Z" fill="#050606"/>
<path d="M76.0822 47.2811C95.6012 56.9201 106.946 64.7221 113.164 71.3661C109.981 83.5911 93.3732 84.1481 87.2992 83.8051C88.5442 83.2511 89.5812 82.5861 89.9492 81.5671C88.4252 80.5301 83.0232 81.4581 79.2502 79.4261C80.6992 79.1381 81.3772 78.8581 82.0552 77.8351C78.4902 76.7451 74.6522 75.8061 72.3942 74.0011C73.6132 74.0181 74.7502 74.2641 76.3422 73.2051C73.1492 71.5571 69.7432 70.2521 67.0982 67.7321C68.7442 67.6941 70.5262 67.7151 71.0442 67.1351C68.1222 65.4021 65.6572 63.4721 63.6182 61.3641C65.9282 61.6301 66.9022 61.4011 67.4622 61.0131C65.2522 58.8471 62.4572 57.0171 61.1242 54.3471C62.8392 54.9131 64.4082 55.1301 65.5392 54.2961C64.7872 52.6741 61.5742 51.7171 59.7212 47.9281C61.5272 48.0941 63.4422 48.3051 63.8232 47.9281C62.9872 44.6561 61.5502 42.8161 60.1392 40.9131C64.0022 40.8571 69.8562 40.9251 69.5912 40.6111L67.2012 38.2751C70.9762 37.3001 74.8382 38.4321 77.6422 39.2691C78.9002 38.3181 77.6202 37.1161 76.0852 35.8841C79.2922 36.2951 82.1892 37.0031 84.8072 37.9761C86.2082 36.7651 83.9002 35.5551 82.7832 34.3421C87.7382 35.2441 89.8382 36.5091 91.9232 37.7781C93.4382 36.3861 92.0102 35.2061 90.9902 33.9961C94.7252 35.3211 96.6492 37.0341 98.6772 38.7231C99.3642 37.8331 100.42 37.1821 99.1442 35.0401C101.795 36.5051 103.793 38.2321 105.271 40.1651C106.912 39.1631 106.249 37.7931 106.259 36.5321C109.016 38.6811 110.764 40.9661 112.908 43.2011C113.336 42.9011 113.714 41.8791 114.049 40.2651C120.625 46.3781 129.919 61.7781 116.437 67.8831C104.964 58.8181 91.2612 52.2261 76.0772 47.2811H76.0802H76.0822ZM179.464 47.2811C159.947 56.9221 148.599 64.7201 142.383 71.3661C145.568 83.5911 162.176 84.1481 168.247 83.8051C167.003 83.2511 165.967 82.5861 165.6 81.5671C167.123 80.5301 172.527 81.4581 176.298 79.4261C174.849 79.1381 174.17 78.8581 173.494 77.8351C177.057 76.7451 180.896 75.8061 183.154 74.0011C181.935 74.0181 180.796 74.2641 179.205 73.2051C182.398 71.5571 185.804 70.2521 188.452 67.7321C186.8 67.6941 185.022 67.7151 184.504 67.1351C187.427 65.4021 189.892 63.4721 191.932 61.3641C189.621 61.6301 188.647 61.4011 188.087 61.0131C190.296 58.8471 193.091 57.0171 194.424 54.3471C192.709 54.9131 191.141 55.1301 190.009 54.2961C190.76 52.6741 193.974 51.7171 195.827 47.9281C194.019 48.0941 192.106 48.3051 191.722 47.9281C192.563 44.6561 193.998 42.8151 195.41 40.9111C191.547 40.8561 185.692 40.9231 185.957 40.6111L188.349 38.2751C184.572 37.2991 180.71 38.4301 177.908 39.2671C176.648 38.3161 177.932 37.1141 179.464 35.8831C176.26 36.2941 173.36 37.0021 170.742 37.9751C169.341 36.7631 171.65 35.5541 172.766 34.3411C167.811 35.2431 165.713 36.5081 163.625 37.7741C162.112 36.3851 163.54 35.2041 164.559 33.9951C160.823 35.3201 158.899 37.0331 156.873 38.7191C156.187 37.8311 155.129 37.1801 156.406 35.0361C153.754 36.5031 151.755 38.2281 150.277 40.1631C148.636 39.1611 149.3 37.7911 149.289 36.5311C146.535 38.6791 144.784 40.9661 142.642 43.2001C142.212 42.9001 141.834 41.8781 141.5 40.2631C134.923 46.3761 125.63 61.7761 139.111 67.8821C150.58 58.8121 164.279 52.2231 179.467 47.2801H179.464" fill="#63C54D"/>
<path d="M151.379 171.774C151.447 183.182 141.034 192.48 128.122 192.541C115.209 192.601 104.687 183.402 104.618 171.992V171.774C104.549 160.365 114.962 151.067 127.874 151.007C140.788 150.947 151.31 160.146 151.379 171.555V171.772V171.774ZM114.925 112.763C124.611 118.844 126.357 132.629 118.825 143.552C111.29 154.475 97.3308 158.401 87.6418 152.319C77.9558 146.238 76.2088 132.451 83.7428 121.53C91.2758 110.605 105.236 106.681 114.925 112.763ZM141.072 111.661C131.384 117.744 129.638 131.527 137.172 142.452C144.706 153.373 158.666 157.301 168.352 151.217C178.042 145.136 179.786 131.351 172.253 120.428C164.718 109.507 150.76 105.58 141.072 111.663V111.661ZM67.1049 122.769C77.5629 120.081 70.6349 164.229 62.1268 160.608C52.7638 153.393 49.7478 132.265 67.1028 122.769H67.1049ZM187.978 122.219C177.517 119.534 184.445 163.682 192.957 160.06C202.318 152.844 205.332 131.715 187.978 122.219ZM152.897 89.2812C170.948 86.3602 185.966 96.6342 185.36 115.389C184.766 122.578 146.246 90.3502 152.897 89.2792V89.2812ZM103.025 88.7302C84.9719 85.8092 69.9528 96.0862 70.5598 114.839C71.1538 122.028 109.675 89.7992 103.025 88.7302ZM127.891 84.3562C117.12 84.0882 106.781 92.0192 106.754 96.6152C106.726 102.205 115.272 107.926 127.967 108.072C140.928 108.16 149.199 103.492 149.241 97.7252C149.288 91.1912 137.451 84.2562 127.891 84.3562ZM128.724 198.957C138.117 198.563 150.722 201.855 150.745 206.221C150.902 210.461 139.315 220.041 128.101 219.857C116.488 220.338 105.1 210.742 105.25 207.417C105.075 202.54 119.392 198.734 128.724 198.957ZM93.9638 173.078C100.65 180.798 103.697 194.36 98.1189 198.357C92.8399 201.41 80.0169 200.153 70.9019 187.608C64.7579 177.084 65.5508 166.372 69.8658 163.224C76.3188 159.458 86.2898 164.546 93.9618 173.078H93.9638ZM161.293 170.63C154.056 178.752 150.027 193.561 155.305 198.331C160.351 202.038 173.899 201.519 183.908 188.214C191.175 179.278 188.739 164.357 184.589 160.394C178.423 155.823 169.572 161.672 161.292 170.627V170.63" fill="#C51850"/>
</svg>

        </g>
         
        <g transform="translate(2100, 0)">
          <svg xmlns="http://www.w3.org/2000/svg" width="256" height="256" fill="none" viewBox="0 0 256 256"><rect width="256" height="256" fill="#242938" rx="60"/><g clip-path="url(#clip0_4_272)"><path fill="#fff" d="M79 171.75H211.356V135.125L186.212 120.706L181.875 118.831L79 119.537V171.75Z"/><path fill="#F38020" d="M165.575 166.887C166.806 162.669 166.338 158.8 164.288 155.925C162.413 153.287 159.244 151.762 155.438 151.587L83.2813 150.65C82.8125 150.65 82.4063 150.412 82.1688 150.062C81.9313 149.712 81.875 149.25 81.9938 148.775C82.2313 148.069 82.9313 147.544 83.6938 147.487L156.494 146.55C165.119 146.137 174.494 139.162 177.769 130.612L181.931 119.769C182.115 119.323 182.158 118.833 182.056 118.362C177.369 97.1437 158.431 81.3187 135.806 81.3187C114.931 81.3187 97.2438 94.8 90.9063 113.506C86.8 110.456 81.5313 108.819 75.9563 109.344C65.9313 110.344 57.8313 118.369 56.9063 128.394C56.6634 130.887 56.8408 133.403 57.4313 135.837C49.5447 136.051 42.0537 139.337 36.5556 144.995C31.0574 150.653 27.9874 158.236 28 166.125C28 167.587 28.125 169.062 28.2938 170.519C28.4188 171.225 29 171.75 29.7 171.75H162.875C163.258 171.743 163.629 171.614 163.934 171.383C164.24 171.151 164.464 170.829 164.575 170.462L165.575 166.887V166.887Z"/><path fill="#FAAE40" d="M188.55 120.519L186.55 120.581C186.081 120.581 185.675 120.931 185.487 121.394L182.675 131.181C181.444 135.4 181.912 139.269 183.962 142.144C185.837 144.781 189.006 146.306 192.812 146.481L208.169 147.419C208.637 147.419 209.044 147.656 209.281 148.006C209.519 148.356 209.575 148.881 209.456 149.294C209.219 150 208.519 150.525 207.756 150.581L191.756 151.519C183.081 151.931 173.756 158.906 170.481 167.456L169.306 170.444C169.069 171.031 169.481 171.619 170.119 171.619H225.1C225.418 171.623 225.729 171.522 225.983 171.331C226.238 171.14 226.422 170.869 226.506 170.562C227.481 167.096 227.983 163.513 228 159.912C227.97 149.465 223.802 139.454 216.409 132.072C209.015 124.69 198.998 120.538 188.55 120.525"/></g><defs><clipPath id="clip0_4_272"><rect width="200" height="200" fill="#fff" transform="translate(28 28)"/></clipPath></defs></svg>
        </g>
         
        <g transform="translate(2400, 0)">
          <svg xmlns="http://www.w3.org/2000/svg" width="256" height="256" fill="none" viewBox="0 0 256 256"><rect width="256" height="256" fill="#242938" rx="60"/><path fill="url(#paint0_linear_159_730)" d="M94.6743 34.0023H153.856L92.4196 216.032C91.7882 217.902 90.586 219.528 88.9824 220.679C87.3788 221.831 85.4545 222.45 83.4803 222.451H37.4223C35.9265 222.451 34.4522 222.095 33.1213 221.412C31.7904 220.729 30.6411 219.74 29.7687 218.525C28.8962 217.31 28.3256 215.905 28.104 214.425C27.8824 212.946 28.0162 211.435 28.4943 210.018L85.7327 40.4209C86.3639 38.5497 87.5662 36.9236 89.1703 35.7717C90.7744 34.6198 92.6995 34.0001 94.6743 34V34.0023Z"/><path fill="#0078D4" d="M180.674 156.095H86.8261C85.9536 156.094 85.101 156.356 84.3795 156.847C83.6579 157.337 83.1008 158.034 82.7807 158.845C82.4606 159.657 82.3923 160.546 82.5848 161.397C82.7773 162.248 83.2217 163.022 83.86 163.616L144.165 219.903C145.92 221.54 148.232 222.451 150.633 222.451H203.774L180.674 156.095Z"/><path fill="url(#paint1_linear_159_730)" d="M94.6745 34.0023C92.6781 33.9946 90.7315 34.6255 89.1192 35.8028C87.5068 36.98 86.3131 38.642 85.7125 40.5459L28.5649 209.863C28.0546 211.286 27.8944 212.81 28.0979 214.308C28.3013 215.805 28.8624 217.232 29.7337 218.466C30.6051 219.701 31.7609 220.708 33.1036 221.401C34.4463 222.095 35.9362 222.455 37.4474 222.451H84.6942C86.4539 222.136 88.0986 221.36 89.4603 220.202C90.822 219.044 91.8519 217.546 92.4448 215.859L103.841 182.273L144.549 220.241C146.255 221.652 148.395 222.433 150.608 222.451H203.551L180.331 156.096L112.642 156.112L154.07 34.0023H94.6745Z"/><path fill="url(#paint2_linear_159_730)" d="M170.264 40.4118C169.634 38.5435 168.434 36.9201 166.832 35.7702C165.23 34.6204 163.308 34.002 161.336 34.0022H95.3792C97.3508 34.0023 99.2727 34.6208 100.874 35.7707C102.476 36.9205 103.677 38.5437 104.307 40.4118L161.548 210.016C162.026 211.433 162.16 212.944 161.939 214.424C161.718 215.904 161.147 217.309 160.275 218.525C159.402 219.74 158.253 220.73 156.922 221.413C155.591 222.096 154.116 222.453 152.62 222.453H218.579C220.075 222.452 221.55 222.096 222.88 221.413C224.211 220.729 225.36 219.739 226.233 218.524C227.105 217.308 227.675 215.903 227.896 214.423C228.118 212.944 227.984 211.433 227.505 210.016L170.264 40.4118Z"/><defs><linearGradient id="paint0_linear_159_730" x1="116.244" x2="54.783" y1="47.967" y2="229.54" gradientUnits="userSpaceOnUse"><stop stop-color="#114A8B"/><stop offset="1" stop-color="#0669BC"/></linearGradient><linearGradient id="paint1_linear_159_730" x1="135.444" x2="121.227" y1="132.585" y2="137.392" gradientUnits="userSpaceOnUse"><stop stop-opacity=".3"/><stop offset=".071" stop-opacity=".2"/><stop offset=".321" stop-opacity=".1"/><stop offset=".623" stop-opacity=".05"/><stop offset="1" stop-opacity="0"/></linearGradient><linearGradient id="paint2_linear_159_730" x1="127.625" x2="195.091" y1="42.671" y2="222.414" gradientUnits="userSpaceOnUse"><stop stop-color="#3CCBF4"/><stop offset="1" stop-color="#2892DF"/></linearGradient></defs></svg>
        </g>
        
  </svg>